<?xml version="1.0" encoding="utf-8" standalone="no"?>
<!DOCTYPE svg PUBLIC "-//W3C//DTD SVG 1.1//EN"
  "http://www.w3.org/Graphics/SVG/1.1/DTD/svg11.dtd">
<svg xmlns:xlink="http://www.w3.org/1999/xlink" width="460.8pt" height="345.6pt" viewBox="0 0 460.8 345.6" xmlns="http://www.w3.org/2000/svg" version="1.1">
 <metadata>
  <rdf:RDF xmlns:dc="http://purl.org/dc/elements/1.1/" xmlns:cc="http://creativecommons.org/ns#" xmlns:rdf="http://www.w3.org/1999/02/22-rdf-syntax-ns#">
   <cc:Work>
    <dc:type rdf:resource="http://purl.org/dc/dcmitype/StillImage"/>
    <dc:date>2021-12-24T21:47:40.185596</dc:date>
    <dc:format>image/svg+xml</dc:format>
    <dc:creator>
     <cc:Agent>
      <dc:title>Matplotlib v3.5.1, https://matplotlib.org/</dc:title>
     </cc:Agent>
    </dc:creator>
   </cc:Work>
  </rdf:RDF>
 </metadata>
 <defs>
  <style type="text/css">*{stroke-linejoin: round; stroke-linecap: butt}</style>
 </defs>
 <g id="figure_1">
  <g id="patch_1">
   <path d="M 0 345.6 
L 460.8 345.6 
L 460.8 0 
L 0 0 
L 0 345.6 
z
" style="fill: none"/>
  </g>
  <g id="axes_1">
   <g id="patch_2">
    <path d="M 57.6 307.584 
L 414.72 307.584 
L 414.72 41.472 
L 57.6 41.472 
L 57.6 307.584 
z
" style="fill: none"/>
   </g>
   <g id="patch_3">
    <path d="M 73.832727 307.584 
L 100.335139 307.584 
L 100.335139 54.144 
L 73.832727 54.144 
z
" clip-path="url(#pe247224595)" style="fill: #ff5b70; stroke: #cc4959; stroke-width: 4; stroke-linejoin: miter"/>
   </g>
   <g id="patch_4">
    <path d="M 106.960742 307.584 
L 133.463154 307.584 
L 133.463154 103.763015 
L 106.960742 103.763015 
z
" clip-path="url(#pe247224595)" style="fill: #ff5b70; stroke: #cc4959; stroke-width: 4; stroke-linejoin: miter"/>
   </g>
   <g id="patch_5">
    <path d="M 140.088757 307.584 
L 166.591169 307.584 
L 166.591169 157.851653 
L 140.088757 157.851653 
z
" clip-path="url(#pe247224595)" style="fill: #ff5b70; stroke: #cc4959; stroke-width: 4; stroke-linejoin: miter"/>
   </g>
   <g id="patch_6">
    <path d="M 173.216772 307.584 
L 199.719184 307.584 
L 199.719184 235.697575 
L 173.216772 235.697575 
z
" clip-path="url(#pe247224595)" style="fill: #ff5b70; stroke: #cc4959; stroke-width: 4; stroke-linejoin: miter"/>
   </g>
   <g id="patch_7">
    <path d="M 206.344787 307.584 
L 232.847199 307.584 
L 232.847199 271.361436 
L 206.344787 271.361436 
z
" clip-path="url(#pe247224595)" style="fill: #ff5b70; stroke: #cc4959; stroke-width: 4; stroke-linejoin: miter"/>
   </g>
   <g id="patch_8">
    <path d="M 239.472801 307.584 
L 265.975213 307.584 
L 265.975213 286.73197 
L 239.472801 286.73197 
z
" clip-path="url(#pe247224595)" style="fill: #ff5b70; stroke: #cc4959; stroke-width: 4; stroke-linejoin: miter"/>
   </g>
   <g id="patch_9">
    <path d="M 272.600816 307.584 
L 299.103228 307.584 
L 299.103228 287.532778 
L 272.600816 287.532778 
z
" clip-path="url(#pe247224595)" style="fill: #ff5b70; stroke: #cc4959; stroke-width: 4; stroke-linejoin: miter"/>
   </g>
   <g id="patch_10">
    <path d="M 305.728831 307.584 
L 332.231243 307.584 
L 332.231243 289.972447 
L 305.728831 289.972447 
z
" clip-path="url(#pe247224595)" style="fill: #ff5b70; stroke: #cc4959; stroke-width: 4; stroke-linejoin: miter"/>
   </g>
   <g id="patch_11">
    <path d="M 338.856846 307.584 
L 365.359258 307.584 
L 365.359258 294.075808 
L 338.856846 294.075808 
z
" clip-path="url(#pe247224595)" style="fill: #ff5b70; stroke: #cc4959; stroke-width: 4; stroke-linejoin: miter"/>
   </g>
   <g id="patch_12">
    <path d="M 371.984861 307.584 
L 398.487273 307.584 
L 398.487273 302.996429 
L 371.984861 302.996429 
z
" clip-path="url(#pe247224595)" style="fill: #ff5b70; stroke: #cc4959; stroke-width: 4; stroke-linejoin: miter"/>
   </g>
   <g id="matplotlib.axis_1">
    <g id="xtick_1">
     <g id="line2d_1">
      <defs>
       <path id="m63ba908a61" d="M 0 0 
L 0 3.5 
" style="stroke: #000000; stroke-width: 0.8"/>
      </defs>
      <g>
       <use xlink:href="#m63ba908a61" x="87.083933" y="307.584" style="stroke: #000000; stroke-width: 0.8"/>
      </g>
     </g>
     <g id="text_1">
      <!-- プレゼント -->
      <g transform="translate(71.382848 355.236011)rotate(-45)scale(0.1 -0.1)">
       <defs>
        <path id="IPAexGothic-30d7" d="M 4825 4275 
L 5125 4000 
Q 4884 2378 4081 1381 
Q 3294 413 1888 -116 
L 1522 331 
Q 4069 1113 4550 3803 
L 966 3738 
L 966 4225 
L 4825 4275 
z
M 5597 5509 
Q 5906 5509 6119 5275 
Q 6303 5075 6303 4806 
Q 6303 4494 6069 4281 
Q 5866 4097 5597 4097 
Q 5284 4097 5072 4331 
Q 4888 4534 4888 4806 
Q 4888 5116 5122 5328 
Q 5328 5509 5597 5509 
z
M 5597 5228 
Q 5409 5228 5278 5088 
Q 5169 4966 5169 4806 
Q 5169 4616 5309 4488 
Q 5434 4378 5597 4378 
Q 5784 4378 5913 4519 
Q 6022 4641 6022 4806 
Q 6022 4991 5881 5119 
Q 5759 5228 5597 5228 
z
" transform="scale(0.015625)"/>
        <path id="IPAexGothic-30ec" d="M 1538 4706 
L 2075 4706 
L 2075 622 
Q 4059 1375 5172 2894 
L 5481 2431 
Q 4922 1678 3931 1019 
Q 2919 334 1928 -31 
L 1538 269 
L 1538 4706 
z
" transform="scale(0.015625)"/>
        <path id="IPAexGothic-30bc" d="M 2028 4838 
L 2553 4838 
L 2553 3359 
L 5259 3694 
L 5575 3406 
Q 4806 2272 3975 1516 
L 3538 1838 
Q 4266 2422 4813 3194 
L 2553 2894 
L 2553 941 
Q 2553 694 2706 628 
Q 2891 544 3584 544 
Q 4384 544 5394 659 
L 5413 134 
Q 4525 63 3813 63 
Q 2647 63 2328 216 
Q 2028 363 2028 825 
L 2028 2822 
L 606 2638 
L 556 3109 
L 2028 3297 
L 2028 4838 
z
M 5772 4416 
Q 5409 4959 5016 5288 
L 5319 5516 
Q 5703 5206 6094 4691 
L 5772 4416 
z
M 5178 3950 
Q 4888 4438 4441 4838 
L 4753 5081 
Q 5125 4775 5509 4225 
L 5178 3950 
z
" transform="scale(0.015625)"/>
        <path id="IPAexGothic-30f3" d="M 2444 3084 
Q 1816 3656 1056 4084 
L 1381 4519 
Q 2063 4191 2816 3559 
L 2444 3084 
z
M 1100 609 
Q 3984 1106 5216 3828 
L 5619 3469 
Q 4413 794 1434 103 
L 1100 609 
z
" transform="scale(0.015625)"/>
        <path id="IPAexGothic-30c8" d="M 2284 4997 
L 2803 4997 
L 2803 3206 
Q 4088 2619 5216 1888 
L 4878 1369 
Q 3819 2175 2803 2688 
L 2803 -184 
L 2284 -184 
L 2284 4997 
z
" transform="scale(0.015625)"/>
       </defs>
       <use xlink:href="#IPAexGothic-30d7"/>
       <use xlink:href="#IPAexGothic-30ec" x="100"/>
       <use xlink:href="#IPAexGothic-30bc" x="200"/>
       <use xlink:href="#IPAexGothic-30f3" x="300"/>
       <use xlink:href="#IPAexGothic-30c8" x="400"/>
      </g>
     </g>
    </g>
    <g id="xtick_2">
     <g id="line2d_2">
      <g>
       <use xlink:href="#m63ba908a61" x="120.211948" y="307.584" style="stroke: #000000; stroke-width: 0.8"/>
      </g>
     </g>
     <g id="text_2">
      <!-- 投資 -->
      <g transform="translate(115.117465 334.022807)rotate(-45)scale(0.1 -0.1)">
       <defs>
        <path id="IPAexGothic-6295" d="M 1303 4006 
L 1303 5300 
L 1744 5300 
L 1744 4006 
L 2488 4006 
L 2488 3591 
L 1744 3591 
L 1744 2388 
Q 2244 2531 2459 2613 
L 2506 2234 
Q 2119 2091 1800 1984 
L 1744 1966 
L 1744 -13 
Q 1744 -291 1609 -378 
Q 1500 -447 1219 -447 
Q 959 -447 606 -416 
L 522 56 
Q 859 0 1113 0 
Q 1303 0 1303 191 
L 1303 1831 
Q 1275 1822 1225 1813 
Q 800 1691 466 1613 
L 319 2047 
Q 1047 2200 1259 2253 
Q 1266 2256 1281 2259 
Q 1294 2263 1303 2266 
L 1303 3591 
L 413 3591 
L 413 4006 
L 1303 4006 
z
M 4913 4984 
L 4913 3463 
Q 4913 3269 5169 3269 
Q 5422 3269 5469 3384 
Q 5513 3509 5522 3850 
L 5528 3941 
L 5963 3800 
Q 5953 3125 5803 2994 
Q 5663 2853 5175 2853 
Q 4716 2853 4581 2950 
Q 4466 3025 4466 3244 
L 4466 4575 
L 3575 4575 
L 3575 4384 
Q 3575 3625 3372 3225 
Q 3219 2938 2828 2641 
L 2525 2969 
Q 2953 3269 3056 3709 
Q 3134 4000 3134 4478 
L 3134 4984 
L 4913 4984 
z
M 4228 428 
Q 3481 -197 2681 -500 
L 2394 -84 
Q 3169 138 3897 716 
Q 3338 1253 2969 2053 
L 2688 2053 
L 2688 2463 
L 5291 2463 
L 5522 2272 
Q 5144 1334 4550 728 
Q 5263 231 6059 50 
L 5784 -403 
Q 4903 -103 4228 428 
z
M 3409 2053 
Q 3691 1481 4216 1003 
Q 4703 1509 4928 2053 
L 3409 2053 
z
" transform="scale(0.015625)"/>
        <path id="IPAexGothic-8cc7" d="M 2222 2913 
L 2003 3181 
Q 3556 3441 3622 4459 
L 3028 4459 
Q 2831 4141 2522 3853 
L 2181 4081 
Q 2731 4581 2988 5319 
L 3400 5241 
Q 3344 5088 3219 4813 
L 5625 4813 
L 5850 4619 
Q 5484 4119 5044 3775 
L 4697 4006 
Q 4991 4203 5216 4459 
L 4031 4459 
Q 4128 3563 5881 3206 
L 5638 2828 
Q 4209 3194 3853 3934 
Q 3547 3200 2484 2913 
L 5172 2913 
L 5172 569 
L 3944 569 
Q 4800 356 5863 -78 
L 5491 -463 
Q 4506 6 3591 275 
L 3909 569 
L 1216 569 
L 1216 2913 
L 2222 2913 
z
M 1650 2588 
L 1650 2247 
L 4738 2247 
L 4738 2588 
L 1650 2588 
z
M 4738 909 
L 4738 1300 
L 1650 1300 
L 1650 909 
L 4738 909 
z
M 4738 1600 
L 4738 1947 
L 1650 1947 
L 1650 1600 
L 4738 1600 
z
M 1703 4166 
Q 1328 4503 763 4806 
L 1050 5106 
Q 1525 4875 2016 4506 
L 1703 4166 
z
M 378 3138 
Q 1256 3494 2022 4050 
L 2191 3700 
Q 1431 3131 659 2731 
L 378 3138 
z
M 441 -134 
Q 1569 144 2272 556 
L 2650 281 
Q 1872 -200 769 -531 
L 441 -134 
z
" transform="scale(0.015625)"/>
       </defs>
       <use xlink:href="#IPAexGothic-6295"/>
       <use xlink:href="#IPAexGothic-8cc7" x="100"/>
      </g>
     </g>
    </g>
    <g id="xtick_3">
     <g id="line2d_3">
      <g>
       <use xlink:href="#m63ba908a61" x="153.339963" y="307.584" style="stroke: #000000; stroke-width: 0.8"/>
      </g>
     </g>
     <g id="text_3">
      <!-- 交通 -->
      <g transform="translate(148.24548 334.022807)rotate(-45)scale(0.1 -0.1)">
       <defs>
        <path id="IPAexGothic-4ea4" d="M 2891 978 
Q 2319 1522 1863 2322 
L 2247 2553 
Q 2653 1806 3213 1288 
Q 3772 1884 4063 2650 
L 4503 2463 
Q 4150 1631 3578 997 
Q 4425 406 5938 91 
L 5606 -372 
Q 4144 6 3244 678 
Q 2341 -94 753 -488 
L 441 -44 
Q 1972 231 2891 978 
z
M 3425 4256 
L 5881 4256 
L 5881 3841 
L 513 3841 
L 513 4256 
L 2931 4256 
L 2931 5313 
L 3425 5313 
L 3425 4256 
z
M 613 2344 
Q 1534 2875 2119 3719 
L 2522 3463 
Q 1928 2625 953 1972 
L 613 2344 
z
M 5369 2069 
Q 4603 2909 3775 3463 
L 4153 3750 
Q 4884 3294 5741 2456 
L 5369 2069 
z
" transform="scale(0.015625)"/>
        <path id="IPAexGothic-901a" d="M 1697 728 
Q 1906 453 2209 306 
Q 2650 94 3897 94 
Q 4725 94 6125 166 
Q 6025 -41 5978 -300 
Q 4844 -341 4269 -341 
Q 2931 -341 2394 -188 
Q 1781 -25 1509 384 
Q 1191 -9 647 -453 
L 366 13 
Q 897 338 1256 659 
L 1256 2303 
L 372 2303 
L 372 2731 
L 1697 2731 
L 1697 728 
z
M 4094 3763 
Q 3397 4138 2816 4366 
L 3103 4622 
Q 3475 4475 3928 4269 
Q 4488 4531 4728 4691 
L 2253 4691 
L 2253 5050 
L 5269 5050 
L 5491 4806 
Q 4938 4416 4294 4088 
L 4363 4056 
Q 4503 3988 4556 3953 
L 4281 3763 
L 5653 3763 
L 5653 813 
Q 5653 381 5209 381 
Q 4863 381 4594 441 
L 4525 863 
Q 4847 791 5081 791 
Q 5228 791 5228 959 
L 5228 1541 
L 4153 1541 
L 4153 459 
L 3744 459 
L 3744 1541 
L 2734 1541 
L 2734 394 
L 2319 394 
L 2319 3763 
L 4094 3763 
z
M 2734 3403 
L 2734 2834 
L 3744 2834 
L 3744 3403 
L 2734 3403 
z
M 2734 2481 
L 2734 1894 
L 3744 1894 
L 3744 2481 
L 2734 2481 
z
M 5228 1894 
L 5228 2481 
L 4153 2481 
L 4153 1894 
L 5228 1894 
z
M 5228 2834 
L 5228 3403 
L 4153 3403 
L 4153 2834 
L 5228 2834 
z
M 1516 3775 
Q 1050 4350 556 4728 
L 863 5050 
Q 1450 4591 1856 4128 
L 1516 3775 
z
" transform="scale(0.015625)"/>
       </defs>
       <use xlink:href="#IPAexGothic-4ea4"/>
       <use xlink:href="#IPAexGothic-901a" x="100"/>
      </g>
     </g>
    </g>
    <g id="xtick_4">
     <g id="line2d_4">
      <g>
       <use xlink:href="#m63ba908a61" x="186.467978" y="307.584" style="stroke: #000000; stroke-width: 0.8"/>
      </g>
     </g>
     <g id="text_4">
      <!-- 家具・家電 -->
      <g transform="translate(170.766893 355.236011)rotate(-45)scale(0.1 -0.1)">
       <defs>
        <path id="IPAexGothic-5bb6" d="M 3306 1425 
Q 2331 363 722 -225 
L 447 141 
Q 2175 709 3178 1828 
Q 3106 1988 3000 2150 
Q 2141 1347 806 819 
L 531 1178 
Q 1791 1553 2784 2438 
Q 2638 2600 2541 2700 
Q 1644 2128 728 1869 
L 478 2219 
Q 1722 2553 2694 3275 
L 1363 3275 
L 1363 3659 
L 5028 3659 
L 5028 3275 
L 3838 3275 
Q 4034 2600 4344 2072 
Q 4972 2547 5331 2988 
L 5722 2706 
Q 5288 2253 4625 1791 
L 4556 1741 
Q 5128 941 5975 391 
L 5625 -44 
Q 3975 1275 3428 3275 
L 3294 3275 
Q 3106 3109 2853 2916 
Q 3838 2047 3838 691 
Q 3838 138 3703 -141 
Q 3559 -447 3044 -447 
Q 2731 -447 2394 -403 
L 2303 63 
Q 2700 -19 2975 -19 
Q 3263 -19 3341 200 
Q 3397 372 3397 672 
Q 3397 1028 3306 1425 
z
M 3413 4550 
L 5778 4550 
L 5778 3341 
L 5319 3341 
L 5319 4159 
L 1075 4159 
L 1075 3341 
L 606 3341 
L 606 4550 
L 2938 4550 
L 2938 5313 
L 3413 5313 
L 3413 4550 
z
" transform="scale(0.015625)"/>
        <path id="IPAexGothic-5177" d="M 5119 4978 
L 5119 1825 
L 1278 1825 
L 1278 4978 
L 5119 4978 
z
M 1725 4594 
L 1725 4044 
L 4666 4044 
L 4666 4594 
L 1725 4594 
z
M 1725 3678 
L 1725 3138 
L 4666 3138 
L 4666 3678 
L 1725 3678 
z
M 1725 2772 
L 1725 2203 
L 4666 2203 
L 4666 2772 
L 1725 2772 
z
M 306 1409 
L 6084 1409 
L 6084 1019 
L 306 1019 
L 306 1409 
z
M 409 -103 
Q 1422 244 2247 934 
L 2628 628 
Q 1741 -100 775 -488 
L 409 -103 
z
M 5466 -378 
Q 4531 256 3628 666 
L 4031 941 
Q 4953 547 5888 -13 
L 5466 -378 
z
" transform="scale(0.015625)"/>
        <path id="IPAexGothic-30fb" d="M 2772 2859 
L 3628 2859 
L 3628 2003 
L 2772 2003 
L 2772 2859 
z
" transform="scale(0.015625)"/>
        <path id="IPAexGothic-96fb" d="M 2956 4378 
L 2956 4741 
L 1053 4741 
L 1053 5106 
L 5338 5106 
L 5338 4741 
L 3397 4741 
L 3397 4378 
L 5797 4378 
L 5797 3084 
L 5344 3084 
L 5344 4031 
L 3397 4031 
L 3397 2638 
L 2956 2638 
L 2956 4031 
L 1047 4031 
L 1047 3072 
L 594 3072 
L 594 4378 
L 2956 4378 
z
M 3363 544 
L 3363 238 
Q 3363 59 3497 31 
Q 3600 6 4491 6 
Q 5219 6 5347 31 
Q 5556 78 5584 281 
Q 5609 500 5616 684 
L 6038 556 
Q 6028 -109 5797 -256 
Q 5619 -378 4419 -378 
Q 3256 -378 3128 -313 
Q 2959 -225 2959 91 
L 2959 544 
L 1456 544 
L 1456 166 
L 1034 166 
L 1034 2400 
L 5316 2400 
L 5316 544 
L 3363 544 
z
M 2959 2059 
L 1456 2059 
L 1456 1666 
L 2959 1666 
L 2959 2059 
z
M 3363 2059 
L 3363 1666 
L 4900 1666 
L 4900 2059 
L 3363 2059 
z
M 2959 1325 
L 1456 1325 
L 1456 897 
L 2959 897 
L 2959 1325 
z
M 3363 1325 
L 3363 897 
L 4900 897 
L 4900 1325 
L 3363 1325 
z
M 1338 3688 
L 2663 3688 
L 2663 3375 
L 1338 3375 
L 1338 3688 
z
M 1338 3072 
L 2663 3072 
L 2663 2753 
L 1338 2753 
L 1338 3072 
z
M 3691 3688 
L 5053 3688 
L 5053 3375 
L 3691 3375 
L 3691 3688 
z
M 3691 3072 
L 5053 3072 
L 5053 2753 
L 3691 2753 
L 3691 3072 
z
" transform="scale(0.015625)"/>
       </defs>
       <use xlink:href="#IPAexGothic-5bb6"/>
       <use xlink:href="#IPAexGothic-5177" x="100"/>
       <use xlink:href="#IPAexGothic-30fb" x="200"/>
       <use xlink:href="#IPAexGothic-5bb6" x="300"/>
       <use xlink:href="#IPAexGothic-96fb" x="400"/>
      </g>
     </g>
    </g>
    <g id="xtick_5">
     <g id="line2d_5">
      <g>
       <use xlink:href="#m63ba908a61" x="219.595993" y="307.584" style="stroke: #000000; stroke-width: 0.8"/>
      </g>
     </g>
     <g id="text_5">
      <!-- 趣味 -->
      <g transform="translate(214.501509 334.022807)rotate(-45)scale(0.1 -0.1)">
       <defs>
        <path id="IPAexGothic-8da3" d="M 3769 1041 
Q 3200 825 2500 669 
L 2366 1078 
Q 2506 1103 2769 1150 
L 2769 4619 
L 2391 4619 
L 2391 4997 
L 4606 4997 
L 4606 4619 
L 4153 4619 
L 4153 247 
L 3769 247 
L 3769 1041 
z
M 3769 1381 
L 3769 2244 
L 3141 2244 
L 3141 1225 
Q 3294 1256 3713 1366 
L 3769 1381 
z
M 3769 4619 
L 3141 4619 
L 3141 3763 
L 3769 3763 
L 3769 4619 
z
M 3769 3409 
L 3141 3409 
L 3141 2597 
L 3769 2597 
L 3769 3409 
z
M 5431 2122 
Q 5706 1684 6028 1094 
L 5766 709 
Q 5484 1244 5253 1663 
Q 4934 934 4441 356 
L 4184 675 
Q 4713 1338 5009 2078 
Q 4650 2694 4288 3197 
L 4513 3459 
Q 4809 3069 5169 2531 
Q 5338 3122 5466 3947 
L 4319 3947 
L 4319 4331 
L 5675 4331 
L 5900 4153 
Q 5716 2894 5431 2122 
z
M 1291 4409 
L 1291 5313 
L 1694 5313 
L 1694 4409 
L 2516 4409 
L 2516 4025 
L 1694 4025 
L 1694 3200 
L 2631 3200 
L 2631 2816 
L 1722 2816 
L 1722 1941 
L 2516 1941 
L 2516 1556 
L 1722 1556 
L 1722 463 
Q 2297 113 3803 113 
Q 4559 113 6197 184 
Q 6056 -94 6034 -294 
Q 4513 -347 3969 -347 
Q 2397 -347 1716 19 
Q 1172 303 856 872 
Q 741 31 497 -500 
L 172 -122 
Q 516 713 575 2278 
L 972 2228 
Q 953 1797 919 1372 
Q 1106 1006 1319 788 
L 1319 2816 
L 319 2816 
L 319 3200 
L 1291 3200 
L 1291 4025 
L 447 4025 
L 447 4409 
L 1291 4409 
z
" transform="scale(0.015625)"/>
        <path id="IPAexGothic-5473" d="M 4366 2413 
Q 4941 1313 6125 569 
L 5781 141 
Q 4756 934 4244 1991 
L 4244 -447 
L 3803 -447 
L 3803 1931 
Q 3331 747 2153 -59 
L 1825 319 
Q 3094 1072 3681 2413 
L 2294 2413 
L 2294 2822 
L 3803 2822 
L 3803 3775 
L 2422 3775 
L 2422 4178 
L 3803 4178 
L 3803 5272 
L 4244 5272 
L 4244 4178 
L 5747 4178 
L 5747 3775 
L 4244 3775 
L 4244 2822 
L 6003 2822 
L 6003 2413 
L 4366 2413 
z
M 2144 4634 
L 2144 1075 
L 966 1075 
L 966 575 
L 538 575 
L 538 4634 
L 2144 4634 
z
M 966 4225 
L 966 1478 
L 1709 1478 
L 1709 4225 
L 966 4225 
z
" transform="scale(0.015625)"/>
       </defs>
       <use xlink:href="#IPAexGothic-8da3"/>
       <use xlink:href="#IPAexGothic-5473" x="100"/>
      </g>
     </g>
    </g>
    <g id="xtick_6">
     <g id="line2d_6">
      <g>
       <use xlink:href="#m63ba908a61" x="252.724007" y="307.584" style="stroke: #000000; stroke-width: 0.8"/>
      </g>
     </g>
     <g id="text_6">
      <!-- 食費 -->
      <g transform="translate(247.629524 334.022807)rotate(-45)scale(0.1 -0.1)">
       <defs>
        <path id="IPAexGothic-98df" d="M 2884 1459 
L 1938 1459 
L 1938 147 
Q 2934 334 3494 469 
L 3538 103 
Q 2325 -244 869 -506 
L 684 -56 
Q 1209 22 1491 72 
L 1491 3272 
Q 984 2944 550 2725 
L 263 3109 
Q 2009 3884 2878 5306 
L 3416 5306 
Q 4434 3991 6184 3291 
L 5903 2872 
Q 5228 3194 4872 3425 
L 4872 1484 
Q 4944 1550 5047 1647 
Q 5138 1734 5166 1759 
L 5550 1466 
Q 4913 938 4294 569 
Q 4944 194 5991 0 
L 5703 -434 
Q 3606 44 2884 1459 
z
M 3347 1459 
Q 3584 1094 3969 794 
Q 4472 1128 4841 1459 
L 3347 1459 
z
M 4416 3206 
L 1938 3206 
L 1938 2719 
L 4416 2719 
L 4416 3206 
z
M 4416 2359 
L 1938 2359 
L 1938 1838 
L 4416 1838 
L 4416 2359 
z
M 4634 3578 
Q 3766 4159 3166 4903 
Q 2691 4172 1925 3578 
L 2963 3578 
L 2963 4200 
L 3403 4200 
L 3403 3578 
L 4634 3578 
z
" transform="scale(0.015625)"/>
        <path id="IPAexGothic-8cbb" d="M 1247 2356 
Q 969 2253 638 2163 
L 391 2503 
Q 1531 2744 1984 3213 
L 709 3213 
Q 859 3603 953 4172 
L 2291 4172 
L 2291 4519 
L 538 4519 
L 538 4844 
L 2291 4844 
L 2291 5325 
L 2719 5325 
L 2719 4844 
L 3666 4844 
L 3666 5325 
L 4097 5325 
L 4097 4844 
L 5422 4844 
L 5422 3859 
L 4097 3859 
L 4097 3525 
L 5941 3525 
Q 5931 3028 5856 2766 
Q 5791 2509 5447 2509 
Q 5363 2509 5178 2528 
L 5178 506 
L 1247 506 
L 1247 2356 
z
M 2072 2784 
L 3666 2784 
L 3666 3213 
L 2475 3213 
Q 2334 2978 2072 2784 
z
M 4097 2784 
L 4981 2784 
L 4947 2931 
Q 5138 2884 5313 2884 
Q 5478 2884 5519 3213 
L 4097 3213 
L 4097 2784 
z
M 4744 2459 
L 1688 2459 
L 1688 2144 
L 4744 2144 
L 4744 2459 
z
M 2719 4172 
L 3666 4172 
L 3666 4519 
L 2719 4519 
L 2719 4172 
z
M 2622 3525 
L 3666 3525 
L 3666 3859 
L 2700 3859 
Q 2681 3684 2622 3525 
z
M 2188 3525 
Q 2259 3700 2278 3859 
L 1325 3859 
Q 1297 3703 1247 3525 
L 2188 3525 
z
M 5006 4519 
L 4097 4519 
L 4097 4172 
L 5006 4172 
L 5006 4519 
z
M 1688 1838 
L 1688 1497 
L 4744 1497 
L 4744 1838 
L 1688 1838 
z
M 1688 1197 
L 1688 838 
L 4744 838 
L 4744 1197 
L 1688 1197 
z
M 500 -141 
Q 1594 78 2303 488 
L 2681 197 
Q 1756 -309 806 -525 
L 500 -141 
z
M 5556 -494 
Q 4550 -66 3622 184 
L 3950 481 
Q 4759 300 5913 -128 
L 5556 -494 
z
" transform="scale(0.015625)"/>
       </defs>
       <use xlink:href="#IPAexGothic-98df"/>
       <use xlink:href="#IPAexGothic-8cbb" x="100"/>
      </g>
     </g>
    </g>
    <g id="xtick_7">
     <g id="line2d_7">
      <g>
       <use xlink:href="#m63ba908a61" x="285.852022" y="307.584" style="stroke: #000000; stroke-width: 0.8"/>
      </g>
     </g>
     <g id="text_7">
      <!-- 水道電気ガス -->
      <g transform="translate(266.615403 362.307079)rotate(-45)scale(0.1 -0.1)">
       <defs>
        <path id="IPAexGothic-6c34" d="M 3469 4219 
Q 3594 3556 3853 3028 
Q 4581 3613 5184 4359 
L 5594 4044 
Q 4944 3297 4056 2650 
Q 4800 1447 6059 728 
L 5728 275 
Q 4016 1394 3469 2994 
L 3469 63 
Q 3469 -391 2872 -391 
Q 2484 -391 2059 -347 
L 1969 153 
Q 2459 78 2816 78 
Q 3000 78 3000 263 
L 3000 5228 
L 3469 5228 
L 3469 4219 
z
M 563 3794 
L 2438 3794 
L 2647 3569 
Q 2475 2638 2181 2003 
Q 1706 984 697 109 
L 319 475 
Q 1809 1578 2156 3366 
L 563 3366 
L 563 3794 
z
" transform="scale(0.015625)"/>
        <path id="IPAexGothic-9053" d="M 1831 781 
Q 2144 400 2663 256 
Q 3019 159 4222 159 
Q 5213 159 6119 216 
Q 5994 -3 5944 -263 
Q 5025 -294 4428 -294 
Q 2800 -294 2272 -63 
Q 1869 119 1600 491 
Q 1131 -53 666 -444 
L 372 44 
Q 881 344 1378 775 
L 1378 2303 
L 397 2303 
L 397 2731 
L 1831 2731 
L 1831 781 
z
M 3731 4038 
L 2088 4038 
L 2088 4409 
L 3113 4409 
Q 2931 4800 2700 5088 
L 3131 5288 
Q 3369 4897 3572 4409 
L 4338 4409 
Q 4519 4781 4678 5313 
L 5156 5178 
Q 4966 4728 4794 4409 
L 5944 4409 
L 5944 4038 
L 4203 4038 
Q 4184 3975 4166 3903 
Q 4122 3734 4050 3553 
L 5434 3553 
L 5434 634 
L 2575 634 
L 2575 3553 
L 3616 3553 
Q 3684 3788 3731 4038 
z
M 2991 3194 
L 2991 2700 
L 5016 2700 
L 5016 3194 
L 2991 3194 
z
M 2991 2347 
L 2991 1863 
L 5016 1863 
L 5016 2347 
L 2991 2347 
z
M 2991 1509 
L 2991 1006 
L 5016 1006 
L 5016 1509 
L 2991 1509 
z
M 1619 3622 
Q 1266 4113 634 4703 
L 972 4997 
Q 1531 4541 1978 3969 
L 1619 3622 
z
" transform="scale(0.015625)"/>
        <path id="IPAexGothic-6c17" d="M 1863 4659 
L 5594 4659 
L 5594 4263 
L 1672 4263 
Q 1306 3572 831 3059 
L 531 3397 
Q 1266 4181 1600 5288 
L 2069 5203 
Q 1981 4941 1863 4659 
z
M 5000 2950 
L 5006 2400 
Q 5025 1044 5222 466 
Q 5328 184 5394 184 
Q 5513 184 5638 1191 
L 6047 916 
Q 5847 -450 5422 -450 
Q 5128 -450 4856 147 
Q 4550 819 4550 2381 
L 4550 2553 
L 672 2553 
L 672 2950 
L 5000 2950 
z
M 2388 1106 
Q 1741 1553 1069 1875 
L 1350 2188 
Q 1991 1878 2606 1478 
L 2669 1441 
Q 3034 1894 3250 2431 
L 3681 2241 
Q 3403 1634 3047 1184 
Q 3672 744 4269 231 
L 3944 -128 
Q 3384 391 2759 844 
Q 2031 50 928 -372 
L 653 31 
Q 1728 403 2356 1069 
L 2388 1106 
z
M 1516 3822 
L 4991 3822 
L 4991 3425 
L 1516 3425 
L 1516 3822 
z
" transform="scale(0.015625)"/>
        <path id="IPAexGothic-30ac" d="M 2734 4981 
L 3247 4981 
L 3247 3694 
L 5250 3694 
L 5250 3425 
Q 5250 1334 5019 500 
Q 4856 -84 4297 -84 
Q 3788 -84 3247 172 
L 3228 731 
Q 3859 441 4200 441 
Q 4484 441 4553 763 
Q 4706 1478 4738 3234 
L 3206 3234 
Q 3025 906 1159 -134 
L 769 263 
Q 2519 1134 2700 3209 
L 916 3209 
L 916 3669 
L 2734 3669 
L 2734 4981 
z
M 5850 4359 
Q 5488 4900 5094 5228 
L 5394 5459 
Q 5778 5150 6169 4634 
L 5850 4359 
z
M 5253 3891 
Q 4966 4381 4519 4781 
L 4831 5025 
Q 5203 4716 5588 4166 
L 5253 3891 
z
" transform="scale(0.015625)"/>
        <path id="IPAexGothic-30b9" d="M 4359 4481 
L 4716 4147 
Q 4328 3072 3647 2150 
Q 4659 1434 5659 453 
L 5234 19 
Q 4256 1088 3353 1778 
Q 2372 597 1044 -31 
L 653 403 
Q 3128 1453 4097 4000 
L 1241 3963 
L 1228 4453 
L 4359 4481 
z
" transform="scale(0.015625)"/>
       </defs>
       <use xlink:href="#IPAexGothic-6c34"/>
       <use xlink:href="#IPAexGothic-9053" x="100"/>
       <use xlink:href="#IPAexGothic-96fb" x="200"/>
       <use xlink:href="#IPAexGothic-6c17" x="300"/>
       <use xlink:href="#IPAexGothic-30ac" x="400"/>
       <use xlink:href="#IPAexGothic-30b9" x="500"/>
      </g>
     </g>
    </g>
    <g id="xtick_8">
     <g id="line2d_8">
      <g>
       <use xlink:href="#m63ba908a61" x="318.980037" y="307.584" style="stroke: #000000; stroke-width: 0.8"/>
      </g>
     </g>
    </g>
    <g id="xtick_9">
     <g id="line2d_9">
      <g>
       <use xlink:href="#m63ba908a61" x="352.108052" y="307.584" style="stroke: #000000; stroke-width: 0.8"/>
      </g>
     </g>
     <g id="text_8">
      <!-- 食費ご褒美 -->
      <g transform="translate(336.406967 355.236011)rotate(-45)scale(0.1 -0.1)">
       <defs>
        <path id="IPAexGothic-3054" d="M 1525 4409 
Q 2284 4350 2881 4350 
Q 3778 4350 4481 4447 
L 4591 4019 
Q 3778 3791 2856 2981 
L 2497 3256 
Q 3028 3653 3488 3938 
Q 2969 3897 2497 3897 
Q 1975 3897 1544 3944 
L 1525 4409 
z
M 5122 178 
Q 4244 0 3181 0 
Q 2194 0 1594 331 
Q 1038 641 1038 1184 
Q 1038 1725 1538 2234 
L 1922 1991 
Q 1525 1631 1525 1247 
Q 1525 488 3169 488 
Q 4166 488 5069 709 
L 5122 178 
z
M 5959 4250 
Q 5597 4791 5203 5119 
L 5506 5350 
Q 5888 5041 6278 4525 
L 5959 4250 
z
M 5391 3763 
Q 5100 4253 4653 4653 
L 4966 4897 
Q 5338 4588 5722 4038 
L 5391 3763 
z
" transform="scale(0.015625)"/>
        <path id="IPAexGothic-8912" d="M 3456 1856 
Q 3697 1444 4091 1069 
Q 4581 1431 4853 1741 
L 5294 1509 
Q 4869 1106 4409 806 
Q 5072 328 6088 25 
L 5772 -391 
Q 4641 41 4019 575 
Q 3538 1000 3181 1581 
Q 2897 1294 2344 978 
L 2344 178 
Q 3044 303 3725 469 
L 3744 91 
Q 2253 -281 1184 -453 
L 1013 -25 
Q 1384 22 1909 103 
L 1909 763 
Q 1303 478 463 250 
L 206 594 
Q 2125 1125 2950 1856 
L 3456 1856 
z
M 3425 4806 
L 5997 4806 
L 5997 4409 
L 403 4409 
L 403 4806 
L 2950 4806 
L 2950 5306 
L 3425 5306 
L 3425 4806 
z
M 1600 3469 
L 1600 1491 
L 1172 1491 
L 1172 2894 
Q 913 2594 628 2356 
L 353 2713 
Q 1225 3400 1631 4397 
L 2028 4256 
Q 1819 3806 1600 3469 
z
M 5319 4134 
L 5319 3181 
L 4053 3181 
L 4053 2900 
L 5925 2900 
L 5925 2553 
L 4053 2553 
L 4053 1644 
L 3638 1644 
L 3638 2553 
L 1869 2553 
L 1869 2900 
L 3638 2900 
L 3638 3181 
L 2394 3181 
L 2394 4134 
L 5319 4134 
z
M 2797 3841 
L 2797 3475 
L 4916 3475 
L 4916 3841 
L 2797 3841 
z
M 5631 1588 
Q 5009 2006 4463 2284 
L 4763 2509 
Q 5334 2256 5941 1881 
L 5631 1588 
z
M 1819 1894 
Q 2431 2128 2863 2503 
L 3200 2297 
Q 2725 1878 2106 1594 
L 1819 1894 
z
" transform="scale(0.015625)"/>
        <path id="IPAexGothic-7f8e" d="M 2950 2228 
L 416 2228 
L 416 2625 
L 2950 2625 
L 2950 3200 
L 959 3200 
L 959 3572 
L 2950 3572 
L 2950 4116 
L 672 4116 
L 672 4500 
L 2175 4500 
Q 1963 4847 1759 5081 
L 2181 5275 
Q 2438 4944 2669 4500 
L 3672 4500 
Q 3944 4878 4116 5294 
L 4588 5122 
Q 4391 4803 4159 4500 
L 5722 4500 
L 5722 4116 
L 3403 4116 
L 3403 3572 
L 5441 3572 
L 5441 3200 
L 3403 3200 
L 3403 2625 
L 5978 2625 
L 5978 2228 
L 3403 2228 
L 3403 1638 
L 5888 1638 
L 5888 1253 
L 3544 1253 
Q 4181 388 6028 88 
L 5741 -366 
Q 3941 -9 3225 1047 
Q 2756 -91 728 -475 
L 466 -41 
Q 1559 122 2131 453 
Q 2647 744 2866 1253 
L 506 1253 
L 506 1638 
L 2950 1638 
L 2950 2228 
z
" transform="scale(0.015625)"/>
       </defs>
       <use xlink:href="#IPAexGothic-98df"/>
       <use xlink:href="#IPAexGothic-8cbb" x="100"/>
       <use xlink:href="#IPAexGothic-3054" x="200"/>
       <use xlink:href="#IPAexGothic-8912" x="300"/>
       <use xlink:href="#IPAexGothic-7f8e" x="400"/>
      </g>
     </g>
    </g>
    <g id="xtick_10">
     <g id="line2d_10">
      <g>
       <use xlink:href="#m63ba908a61" x="385.236067" y="307.584" style="stroke: #000000; stroke-width: 0.8"/>
      </g>
     </g>
     <g id="text_9">
      <!-- ご褒美 -->
      <g transform="translate(376.606049 341.093875)rotate(-45)scale(0.1 -0.1)">
       <use xlink:href="#IPAexGothic-3054"/>
       <use xlink:href="#IPAexGothic-8912" x="100"/>
       <use xlink:href="#IPAexGothic-7f8e" x="200"/>
      </g>
     </g>
    </g>
   </g>
   <g id="matplotlib.axis_2">
    <g id="ytick_1">
     <g id="line2d_11">
      <defs>
       <path id="mfd6f0ea92b" d="M 0 0 
L -3.5 0 
" style="stroke: #000000; stroke-width: 0.8"/>
      </defs>
      <g>
       <use xlink:href="#mfd6f0ea92b" x="57.6" y="307.584" style="stroke: #000000; stroke-width: 0.8"/>
      </g>
     </g>
     <g id="text_10">
      <!-- 0 -->
      <g transform="translate(44.301563 311.329312)scale(0.1 -0.1)">
       <defs>
        <path id="IPAexGothic-30" d="M 2038 4725 
Q 2881 4725 3334 3944 
Q 3694 3325 3694 2344 
Q 3694 1372 3334 741 
Q 2888 -31 2016 -31 
Q 1147 -31 700 741 
Q 341 1372 341 2350 
Q 341 3713 1000 4334 
Q 1419 4725 2038 4725 
z
M 2016 4266 
Q 1516 4266 1228 3759 
Q 934 3247 934 2344 
Q 934 1456 1222 947 
Q 1513 447 2016 447 
Q 2619 447 2909 1153 
Q 3100 1622 3100 2375 
Q 3100 3256 2806 3759 
Q 2509 4266 2016 4266 
z
" transform="scale(0.015625)"/>
       </defs>
       <use xlink:href="#IPAexGothic-30"/>
      </g>
     </g>
    </g>
    <g id="ytick_2">
     <g id="line2d_12">
      <g>
       <use xlink:href="#mfd6f0ea92b" x="57.6" y="276.544956" style="stroke: #000000; stroke-width: 0.8"/>
      </g>
     </g>
     <g id="text_11">
      <!-- 5000 -->
      <g transform="translate(25.40625 280.290269)scale(0.1 -0.1)">
       <defs>
        <path id="IPAexGothic-35" d="M 1178 2603 
Q 1634 2963 2172 2963 
Q 2816 2963 3241 2528 
Q 3638 2113 3638 1497 
Q 3638 938 3297 513 
Q 2869 -31 2031 -31 
Q 959 -31 469 784 
L 938 1028 
Q 1309 434 2013 434 
Q 2466 434 2769 716 
Q 3081 1013 3081 1503 
Q 3081 1966 2806 2241 
Q 2519 2528 2056 2528 
Q 1406 2528 1072 2028 
L 591 2091 
L 884 4634 
L 3406 4634 
L 3406 4153 
L 1341 4153 
L 1134 2603 
L 1178 2603 
z
" transform="scale(0.015625)"/>
       </defs>
       <use xlink:href="#IPAexGothic-35"/>
       <use xlink:href="#IPAexGothic-30" x="62.988281"/>
       <use xlink:href="#IPAexGothic-30" x="125.976562"/>
       <use xlink:href="#IPAexGothic-30" x="188.964844"/>
      </g>
     </g>
    </g>
    <g id="ytick_3">
     <g id="line2d_13">
      <g>
       <use xlink:href="#mfd6f0ea92b" x="57.6" y="245.505913" style="stroke: #000000; stroke-width: 0.8"/>
      </g>
     </g>
     <g id="text_12">
      <!-- 10000 -->
      <g transform="translate(19.107813 249.251225)scale(0.1 -0.1)">
       <defs>
        <path id="IPAexGothic-31" d="M 2463 63 
L 1900 63 
L 1900 4103 
Q 1372 3922 788 3797 
L 684 4231 
Q 1519 4441 2106 4731 
L 2463 4731 
L 2463 63 
z
" transform="scale(0.015625)"/>
       </defs>
       <use xlink:href="#IPAexGothic-31"/>
       <use xlink:href="#IPAexGothic-30" x="62.988281"/>
       <use xlink:href="#IPAexGothic-30" x="125.976562"/>
       <use xlink:href="#IPAexGothic-30" x="188.964844"/>
       <use xlink:href="#IPAexGothic-30" x="251.953125"/>
      </g>
     </g>
    </g>
    <g id="ytick_4">
     <g id="line2d_14">
      <g>
       <use xlink:href="#mfd6f0ea92b" x="57.6" y="214.466869" style="stroke: #000000; stroke-width: 0.8"/>
      </g>
     </g>
     <g id="text_13">
      <!-- 15000 -->
      <g transform="translate(19.107813 218.212181)scale(0.1 -0.1)">
       <use xlink:href="#IPAexGothic-31"/>
       <use xlink:href="#IPAexGothic-35" x="62.988281"/>
       <use xlink:href="#IPAexGothic-30" x="125.976562"/>
       <use xlink:href="#IPAexGothic-30" x="188.964844"/>
       <use xlink:href="#IPAexGothic-30" x="251.953125"/>
      </g>
     </g>
    </g>
    <g id="ytick_5">
     <g id="line2d_15">
      <g>
       <use xlink:href="#mfd6f0ea92b" x="57.6" y="183.427825" style="stroke: #000000; stroke-width: 0.8"/>
      </g>
     </g>
     <g id="text_14">
      <!-- 20000 -->
      <g transform="translate(19.107813 187.173138)scale(0.1 -0.1)">
       <defs>
        <path id="IPAexGothic-32" d="M 3659 63 
L 447 63 
L 447 594 
Q 825 1475 1894 2203 
L 2072 2322 
Q 2619 2697 2791 2906 
Q 2988 3153 2988 3444 
Q 2988 3772 2756 4003 
Q 2500 4259 2084 4259 
Q 1250 4259 991 3328 
L 497 3506 
Q 853 4725 2116 4725 
Q 2806 4725 3216 4316 
Q 3575 3947 3575 3425 
Q 3575 3038 3344 2722 
Q 3131 2416 2366 1938 
L 2231 1856 
Q 1256 1253 978 569 
L 3659 569 
L 3659 63 
z
" transform="scale(0.015625)"/>
       </defs>
       <use xlink:href="#IPAexGothic-32"/>
       <use xlink:href="#IPAexGothic-30" x="62.988281"/>
       <use xlink:href="#IPAexGothic-30" x="125.976562"/>
       <use xlink:href="#IPAexGothic-30" x="188.964844"/>
       <use xlink:href="#IPAexGothic-30" x="251.953125"/>
      </g>
     </g>
    </g>
    <g id="ytick_6">
     <g id="line2d_16">
      <g>
       <use xlink:href="#mfd6f0ea92b" x="57.6" y="152.388781" style="stroke: #000000; stroke-width: 0.8"/>
      </g>
     </g>
     <g id="text_15">
      <!-- 25000 -->
      <g transform="translate(19.107813 156.134094)scale(0.1 -0.1)">
       <use xlink:href="#IPAexGothic-32"/>
       <use xlink:href="#IPAexGothic-35" x="62.988281"/>
       <use xlink:href="#IPAexGothic-30" x="125.976562"/>
       <use xlink:href="#IPAexGothic-30" x="188.964844"/>
       <use xlink:href="#IPAexGothic-30" x="251.953125"/>
      </g>
     </g>
    </g>
    <g id="ytick_7">
     <g id="line2d_17">
      <g>
       <use xlink:href="#mfd6f0ea92b" x="57.6" y="121.349738" style="stroke: #000000; stroke-width: 0.8"/>
      </g>
     </g>
     <g id="text_16">
      <!-- 30000 -->
      <g transform="translate(19.107813 125.09505)scale(0.1 -0.1)">
       <defs>
        <path id="IPAexGothic-33" d="M 2381 2419 
Q 3506 2216 3506 1278 
Q 3506 716 3128 356 
Q 2709 -31 1944 -31 
Q 797 -31 288 881 
L 756 1131 
Q 1109 441 1938 441 
Q 2425 441 2694 691 
Q 2950 928 2950 1291 
Q 2950 1719 2566 1978 
Q 2216 2213 1644 2213 
L 1363 2213 
L 1363 2669 
L 1656 2669 
Q 2231 2669 2534 2888 
Q 2859 3119 2859 3509 
Q 2859 3934 2494 4138 
Q 2259 4278 1931 4278 
Q 1238 4278 903 3578 
L 434 3803 
Q 897 4725 1938 4725 
Q 2597 4725 3006 4394 
Q 3416 4069 3416 3534 
Q 3416 3028 3019 2706 
Q 2763 2500 2381 2444 
L 2381 2419 
z
" transform="scale(0.015625)"/>
       </defs>
       <use xlink:href="#IPAexGothic-33"/>
       <use xlink:href="#IPAexGothic-30" x="62.988281"/>
       <use xlink:href="#IPAexGothic-30" x="125.976562"/>
       <use xlink:href="#IPAexGothic-30" x="188.964844"/>
       <use xlink:href="#IPAexGothic-30" x="251.953125"/>
      </g>
     </g>
    </g>
    <g id="ytick_8">
     <g id="line2d_18">
      <g>
       <use xlink:href="#mfd6f0ea92b" x="57.6" y="90.310694" style="stroke: #000000; stroke-width: 0.8"/>
      </g>
     </g>
     <g id="text_17">
      <!-- 35000 -->
      <g transform="translate(19.107813 94.056006)scale(0.1 -0.1)">
       <use xlink:href="#IPAexGothic-33"/>
       <use xlink:href="#IPAexGothic-35" x="62.988281"/>
       <use xlink:href="#IPAexGothic-30" x="125.976562"/>
       <use xlink:href="#IPAexGothic-30" x="188.964844"/>
       <use xlink:href="#IPAexGothic-30" x="251.953125"/>
      </g>
     </g>
    </g>
    <g id="ytick_9">
     <g id="line2d_19">
      <g>
       <use xlink:href="#mfd6f0ea92b" x="57.6" y="59.27165" style="stroke: #000000; stroke-width: 0.8"/>
      </g>
     </g>
     <g id="text_18">
      <!-- 40000 -->
      <g transform="translate(19.107813 63.016963)scale(0.1 -0.1)">
       <defs>
        <path id="IPAexGothic-34" d="M 3813 1159 
L 3059 1159 
L 3059 63 
L 2547 63 
L 2547 1159 
L 197 1159 
L 197 1672 
L 2456 4678 
L 3059 4678 
L 3059 1634 
L 3813 1634 
L 3813 1159 
z
M 2578 4109 
L 2559 4109 
Q 2278 3656 2003 3284 
L 759 1634 
L 2547 1634 
L 2547 3144 
Q 2547 3481 2578 4109 
z
" transform="scale(0.015625)"/>
       </defs>
       <use xlink:href="#IPAexGothic-34"/>
       <use xlink:href="#IPAexGothic-30" x="62.988281"/>
       <use xlink:href="#IPAexGothic-30" x="125.976562"/>
       <use xlink:href="#IPAexGothic-30" x="188.964844"/>
       <use xlink:href="#IPAexGothic-30" x="251.953125"/>
      </g>
     </g>
    </g>
   </g>
   <g id="patch_13">
    <path d="M 57.6 307.584 
L 57.6 41.472 
" style="fill: none; stroke: #000000; stroke-width: 0.8; stroke-linejoin: miter; stroke-linecap: square"/>
   </g>
   <g id="patch_14">
    <path d="M 414.72 307.584 
L 414.72 41.472 
" style="fill: none; stroke: #000000; stroke-width: 0.8; stroke-linejoin: miter; stroke-linecap: square"/>
   </g>
   <g id="patch_15">
    <path d="M 57.6 307.584 
L 414.72 307.584 
" style="fill: none; stroke: #000000; stroke-width: 0.8; stroke-linejoin: miter; stroke-linecap: square"/>
   </g>
   <g id="patch_16">
    <path d="M 57.6 41.472 
L 414.72 41.472 
" style="fill: none; stroke: #000000; stroke-width: 0.8; stroke-linejoin: miter; stroke-linecap: square"/>
   </g>
  </g>
 </g>
 <defs>
  <clipPath id="pe247224595">
   <rect x="57.6" y="41.472" width="357.12" height="266.112"/>
  </clipPath>
 </defs>
</svg>
