<?xml version="1.0" encoding="utf-8" standalone="no"?>
<!DOCTYPE svg PUBLIC "-//W3C//DTD SVG 1.1//EN"
  "http://www.w3.org/Graphics/SVG/1.1/DTD/svg11.dtd">
<svg xmlns:xlink="http://www.w3.org/1999/xlink" width="460.8pt" height="345.6pt" viewBox="0 0 460.8 345.6" xmlns="http://www.w3.org/2000/svg" version="1.1">
 <metadata>
  <rdf:RDF xmlns:dc="http://purl.org/dc/elements/1.1/" xmlns:cc="http://creativecommons.org/ns#" xmlns:rdf="http://www.w3.org/1999/02/22-rdf-syntax-ns#">
   <cc:Work>
    <dc:type rdf:resource="http://purl.org/dc/dcmitype/StillImage"/>
    <dc:date>2021-12-24T22:03:55.422905</dc:date>
    <dc:format>image/svg+xml</dc:format>
    <dc:creator>
     <cc:Agent>
      <dc:title>Matplotlib v3.5.1, https://matplotlib.org/</dc:title>
     </cc:Agent>
    </dc:creator>
   </cc:Work>
  </rdf:RDF>
 </metadata>
 <defs>
  <style type="text/css">*{stroke-linejoin: round; stroke-linecap: butt}</style>
 </defs>
 <g id="figure_1">
  <g id="patch_1">
   <path d="M 0 345.6 
L 460.8 345.6 
L 460.8 0 
L 0 0 
L 0 345.6 
z
" style="fill: none"/>
  </g>
  <g id="axes_1">
   <g id="patch_2">
    <path d="M 57.6 307.584 
L 414.72 307.584 
L 414.72 41.472 
L 57.6 41.472 
L 57.6 307.584 
z
" style="fill: none"/>
   </g>
   <g id="patch_3">
    <path d="M 140.088757 307.584 
L 166.591169 307.584 
L 166.591169 54.144 
L 140.088757 54.144 
z
" clip-path="url(#p594f9ed72a)" style="fill: #ff5b70; stroke: #cc4959; stroke-width: 4; stroke-linejoin: miter"/>
   </g>
   <g id="patch_4">
    <path d="M 305.728831 307.584 
L 332.231243 307.584 
L 332.231243 57.561415 
L 305.728831 57.561415 
z
" clip-path="url(#p594f9ed72a)" style="fill: #ff5b70; stroke: #cc4959; stroke-width: 4; stroke-linejoin: miter"/>
   </g>
   <g id="patch_5">
    <path d="M 371.984861 307.584 
L 398.487273 307.584 
L 398.487273 70.84311 
L 371.984861 70.84311 
z
" clip-path="url(#p594f9ed72a)" style="fill: #ff5b70; stroke: #cc4959; stroke-width: 4; stroke-linejoin: miter"/>
   </g>
   <g id="patch_6">
    <path d="M 239.472801 307.584 
L 265.975213 307.584 
L 265.975213 80.254459 
L 239.472801 80.254459 
z
" clip-path="url(#p594f9ed72a)" style="fill: #ff5b70; stroke: #cc4959; stroke-width: 4; stroke-linejoin: miter"/>
   </g>
   <g id="patch_7">
    <path d="M 173.216772 307.584 
L 199.719184 307.584 
L 199.719184 84.013429 
L 173.216772 84.013429 
z
" clip-path="url(#p594f9ed72a)" style="fill: #ff5b70; stroke: #cc4959; stroke-width: 4; stroke-linejoin: miter"/>
   </g>
   <g id="patch_8">
    <path d="M 206.344787 307.584 
L 232.847199 307.584 
L 232.847199 88.132518 
L 206.344787 88.132518 
z
" clip-path="url(#p594f9ed72a)" style="fill: #ff5b70; stroke: #cc4959; stroke-width: 4; stroke-linejoin: miter"/>
   </g>
   <g id="patch_9">
    <path d="M 338.856846 307.584 
L 365.359258 307.584 
L 365.359258 109.945685 
L 338.856846 109.945685 
z
" clip-path="url(#p594f9ed72a)" style="fill: #ff5b70; stroke: #cc4959; stroke-width: 4; stroke-linejoin: miter"/>
   </g>
   <g id="patch_10">
    <path d="M 106.960742 307.584 
L 133.463154 307.584 
L 133.463154 141.903431 
L 106.960742 141.903431 
z
" clip-path="url(#p594f9ed72a)" style="fill: #ff5b70; stroke: #cc4959; stroke-width: 4; stroke-linejoin: miter"/>
   </g>
   <g id="patch_11">
    <path d="M 272.600816 307.584 
L 299.103228 307.584 
L 299.103228 165.945992 
L 272.600816 165.945992 
z
" clip-path="url(#p594f9ed72a)" style="fill: #ff5b70; stroke: #cc4959; stroke-width: 4; stroke-linejoin: miter"/>
   </g>
   <g id="patch_12">
    <path d="M 73.832727 307.584 
L 100.335139 307.584 
L 100.335139 241.598754 
L 73.832727 241.598754 
z
" clip-path="url(#p594f9ed72a)" style="fill: #ff5b70; stroke: #cc4959; stroke-width: 4; stroke-linejoin: miter"/>
   </g>
   <g id="matplotlib.axis_1">
    <g id="xtick_1">
     <g id="line2d_1">
      <defs>
       <path id="md078934d30" d="M 0 0 
L 0 3.5 
" style="stroke: #000000; stroke-width: 0.8"/>
      </defs>
      <g>
       <use xlink:href="#md078934d30" x="120.211948" y="307.584" style="stroke: #000000; stroke-width: 0.8"/>
      </g>
     </g>
     <g id="text_1">
      <!-- 4 -->
      <g transform="translate(120.061798 320.434204)rotate(-45)scale(0.06 -0.06)">
       <defs>
        <path id="IPAexGothic-34" d="M 3813 1159 
L 3059 1159 
L 3059 63 
L 2547 63 
L 2547 1159 
L 197 1159 
L 197 1672 
L 2456 4678 
L 3059 4678 
L 3059 1634 
L 3813 1634 
L 3813 1159 
z
M 2578 4109 
L 2559 4109 
Q 2278 3656 2003 3284 
L 759 1634 
L 2547 1634 
L 2547 3144 
Q 2547 3481 2578 4109 
z
" transform="scale(0.015625)"/>
       </defs>
       <use xlink:href="#IPAexGothic-34"/>
      </g>
     </g>
    </g>
    <g id="xtick_2">
     <g id="line2d_2">
      <g>
       <use xlink:href="#md078934d30" x="186.467978" y="307.584" style="stroke: #000000; stroke-width: 0.8"/>
      </g>
     </g>
     <g id="text_2">
      <!-- 6 -->
      <g transform="translate(186.317828 320.434204)rotate(-45)scale(0.06 -0.06)">
       <defs>
        <path id="IPAexGothic-36" d="M 1056 2328 
Q 1509 2981 2234 2981 
Q 2906 2981 3316 2513 
Q 3675 2106 3675 1522 
Q 3675 884 3272 434 
Q 2853 -31 2178 -31 
Q 1375 -31 922 581 
Q 481 1178 481 2228 
Q 481 3425 1013 4109 
Q 1494 4725 2272 4725 
Q 3191 4725 3609 4025 
L 3150 3775 
Q 2894 4266 2300 4266 
Q 1119 4266 1031 2328 
L 1056 2328 
z
M 2141 2547 
Q 1684 2547 1384 2206 
Q 1116 1900 1116 1541 
Q 1116 1156 1353 844 
Q 1672 428 2159 428 
Q 2669 428 2941 844 
Q 3125 1128 3125 1503 
Q 3125 1944 2881 2228 
Q 2600 2547 2141 2547 
z
" transform="scale(0.015625)"/>
       </defs>
       <use xlink:href="#IPAexGothic-36"/>
      </g>
     </g>
    </g>
    <g id="xtick_3">
     <g id="line2d_3">
      <g>
       <use xlink:href="#md078934d30" x="252.724007" y="307.584" style="stroke: #000000; stroke-width: 0.8"/>
      </g>
     </g>
     <g id="text_3">
      <!-- 8 -->
      <g transform="translate(252.573858 320.434204)rotate(-45)scale(0.06 -0.06)">
       <defs>
        <path id="IPAexGothic-38" d="M 2541 2425 
Q 3700 2031 3700 1197 
Q 3700 541 3100 197 
Q 2663 -56 2016 -56 
Q 1366 -56 928 197 
Q 347 531 347 1178 
Q 347 1988 1409 2381 
L 1409 2400 
Q 481 2734 481 3509 
Q 481 4100 981 4456 
Q 1406 4756 2019 4756 
Q 2703 4756 3131 4403 
Q 3553 4069 3553 3566 
Q 3553 2706 2541 2444 
L 2541 2425 
z
M 2022 2625 
Q 2997 2856 2997 3528 
Q 2997 3916 2675 4150 
Q 2413 4347 2016 4347 
Q 1606 4347 1331 4128 
Q 1050 3897 1050 3522 
Q 1050 3150 1350 2925 
Q 1494 2809 1722 2722 
Q 1984 2616 2022 2625 
z
M 1978 2209 
Q 922 1931 922 1216 
Q 922 775 1313 556 
Q 1606 391 2009 391 
Q 2575 391 2881 697 
Q 3106 922 3106 1250 
Q 3106 1594 2794 1850 
Q 2609 1994 2350 2100 
Q 2047 2222 1978 2209 
z
" transform="scale(0.015625)"/>
       </defs>
       <use xlink:href="#IPAexGothic-38"/>
      </g>
     </g>
    </g>
    <g id="xtick_4">
     <g id="line2d_4">
      <g>
       <use xlink:href="#md078934d30" x="318.980037" y="307.584" style="stroke: #000000; stroke-width: 0.8"/>
      </g>
     </g>
     <g id="text_4">
      <!-- 10 -->
      <g transform="translate(317.493787 323.106404)rotate(-45)scale(0.06 -0.06)">
       <defs>
        <path id="IPAexGothic-31" d="M 2463 63 
L 1900 63 
L 1900 4103 
Q 1372 3922 788 3797 
L 684 4231 
Q 1519 4441 2106 4731 
L 2463 4731 
L 2463 63 
z
" transform="scale(0.015625)"/>
        <path id="IPAexGothic-30" d="M 2038 4725 
Q 2881 4725 3334 3944 
Q 3694 3325 3694 2344 
Q 3694 1372 3334 741 
Q 2888 -31 2016 -31 
Q 1147 -31 700 741 
Q 341 1372 341 2350 
Q 341 3713 1000 4334 
Q 1419 4725 2038 4725 
z
M 2016 4266 
Q 1516 4266 1228 3759 
Q 934 3247 934 2344 
Q 934 1456 1222 947 
Q 1513 447 2016 447 
Q 2619 447 2909 1153 
Q 3100 1622 3100 2375 
Q 3100 3256 2806 3759 
Q 2509 4266 2016 4266 
z
" transform="scale(0.015625)"/>
       </defs>
       <use xlink:href="#IPAexGothic-31"/>
       <use xlink:href="#IPAexGothic-30" x="62.988281"/>
      </g>
     </g>
    </g>
    <g id="xtick_5">
     <g id="line2d_5">
      <g>
       <use xlink:href="#md078934d30" x="385.236067" y="307.584" style="stroke: #000000; stroke-width: 0.8"/>
      </g>
     </g>
     <g id="text_5">
      <!-- 12 -->
      <g transform="translate(383.749817 323.106404)rotate(-45)scale(0.06 -0.06)">
       <defs>
        <path id="IPAexGothic-32" d="M 3659 63 
L 447 63 
L 447 594 
Q 825 1475 1894 2203 
L 2072 2322 
Q 2619 2697 2791 2906 
Q 2988 3153 2988 3444 
Q 2988 3772 2756 4003 
Q 2500 4259 2084 4259 
Q 1250 4259 991 3328 
L 497 3506 
Q 853 4725 2116 4725 
Q 2806 4725 3216 4316 
Q 3575 3947 3575 3425 
Q 3575 3038 3344 2722 
Q 3131 2416 2366 1938 
L 2231 1856 
Q 1256 1253 978 569 
L 3659 569 
L 3659 63 
z
" transform="scale(0.015625)"/>
       </defs>
       <use xlink:href="#IPAexGothic-31"/>
       <use xlink:href="#IPAexGothic-32" x="62.988281"/>
      </g>
     </g>
    </g>
   </g>
   <g id="matplotlib.axis_2">
    <g id="ytick_1">
     <g id="line2d_6">
      <defs>
       <path id="m86afee64ff" d="M 0 0 
L -3.5 0 
" style="stroke: #000000; stroke-width: 0.8"/>
      </defs>
      <g>
       <use xlink:href="#m86afee64ff" x="57.6" y="307.584" style="stroke: #000000; stroke-width: 0.8"/>
      </g>
     </g>
     <g id="text_6">
      <!-- 0 -->
      <g transform="translate(46.820937 309.831187)scale(0.06 -0.06)">
       <use xlink:href="#IPAexGothic-30"/>
      </g>
     </g>
    </g>
    <g id="ytick_2">
     <g id="line2d_7">
      <g>
       <use xlink:href="#m86afee64ff" x="57.6" y="270.458366" style="stroke: #000000; stroke-width: 0.8"/>
      </g>
     </g>
     <g id="text_7">
      <!-- 20000 -->
      <g transform="translate(31.704688 272.705553)scale(0.06 -0.06)">
       <use xlink:href="#IPAexGothic-32"/>
       <use xlink:href="#IPAexGothic-30" x="62.988281"/>
       <use xlink:href="#IPAexGothic-30" x="125.976562"/>
       <use xlink:href="#IPAexGothic-30" x="188.964844"/>
       <use xlink:href="#IPAexGothic-30" x="251.953125"/>
      </g>
     </g>
    </g>
    <g id="ytick_3">
     <g id="line2d_8">
      <g>
       <use xlink:href="#m86afee64ff" x="57.6" y="233.332731" style="stroke: #000000; stroke-width: 0.8"/>
      </g>
     </g>
     <g id="text_8">
      <!-- 40000 -->
      <g transform="translate(31.704688 235.579919)scale(0.06 -0.06)">
       <use xlink:href="#IPAexGothic-34"/>
       <use xlink:href="#IPAexGothic-30" x="62.988281"/>
       <use xlink:href="#IPAexGothic-30" x="125.976562"/>
       <use xlink:href="#IPAexGothic-30" x="188.964844"/>
       <use xlink:href="#IPAexGothic-30" x="251.953125"/>
      </g>
     </g>
    </g>
    <g id="ytick_4">
     <g id="line2d_9">
      <g>
       <use xlink:href="#m86afee64ff" x="57.6" y="196.207097" style="stroke: #000000; stroke-width: 0.8"/>
      </g>
     </g>
     <g id="text_9">
      <!-- 60000 -->
      <g transform="translate(31.704688 198.454284)scale(0.06 -0.06)">
       <use xlink:href="#IPAexGothic-36"/>
       <use xlink:href="#IPAexGothic-30" x="62.988281"/>
       <use xlink:href="#IPAexGothic-30" x="125.976562"/>
       <use xlink:href="#IPAexGothic-30" x="188.964844"/>
       <use xlink:href="#IPAexGothic-30" x="251.953125"/>
      </g>
     </g>
    </g>
    <g id="ytick_5">
     <g id="line2d_10">
      <g>
       <use xlink:href="#m86afee64ff" x="57.6" y="159.081462" style="stroke: #000000; stroke-width: 0.8"/>
      </g>
     </g>
     <g id="text_10">
      <!-- 80000 -->
      <g transform="translate(31.704688 161.32865)scale(0.06 -0.06)">
       <use xlink:href="#IPAexGothic-38"/>
       <use xlink:href="#IPAexGothic-30" x="62.988281"/>
       <use xlink:href="#IPAexGothic-30" x="125.976562"/>
       <use xlink:href="#IPAexGothic-30" x="188.964844"/>
       <use xlink:href="#IPAexGothic-30" x="251.953125"/>
      </g>
     </g>
    </g>
    <g id="ytick_6">
     <g id="line2d_11">
      <g>
       <use xlink:href="#m86afee64ff" x="57.6" y="121.955828" style="stroke: #000000; stroke-width: 0.8"/>
      </g>
     </g>
     <g id="text_11">
      <!-- 100000 -->
      <g transform="translate(27.925625 124.203015)scale(0.06 -0.06)">
       <use xlink:href="#IPAexGothic-31"/>
       <use xlink:href="#IPAexGothic-30" x="62.988281"/>
       <use xlink:href="#IPAexGothic-30" x="125.976562"/>
       <use xlink:href="#IPAexGothic-30" x="188.964844"/>
       <use xlink:href="#IPAexGothic-30" x="251.953125"/>
       <use xlink:href="#IPAexGothic-30" x="314.941406"/>
      </g>
     </g>
    </g>
    <g id="ytick_7">
     <g id="line2d_12">
      <g>
       <use xlink:href="#m86afee64ff" x="57.6" y="84.830193" style="stroke: #000000; stroke-width: 0.8"/>
      </g>
     </g>
     <g id="text_12">
      <!-- 120000 -->
      <g transform="translate(27.925625 87.077381)scale(0.06 -0.06)">
       <use xlink:href="#IPAexGothic-31"/>
       <use xlink:href="#IPAexGothic-32" x="62.988281"/>
       <use xlink:href="#IPAexGothic-30" x="125.976562"/>
       <use xlink:href="#IPAexGothic-30" x="188.964844"/>
       <use xlink:href="#IPAexGothic-30" x="251.953125"/>
       <use xlink:href="#IPAexGothic-30" x="314.941406"/>
      </g>
     </g>
    </g>
    <g id="ytick_8">
     <g id="line2d_13">
      <g>
       <use xlink:href="#m86afee64ff" x="57.6" y="47.704559" style="stroke: #000000; stroke-width: 0.8"/>
      </g>
     </g>
     <g id="text_13">
      <!-- 140000 -->
      <g transform="translate(27.925625 49.951746)scale(0.06 -0.06)">
       <use xlink:href="#IPAexGothic-31"/>
       <use xlink:href="#IPAexGothic-34" x="62.988281"/>
       <use xlink:href="#IPAexGothic-30" x="125.976562"/>
       <use xlink:href="#IPAexGothic-30" x="188.964844"/>
       <use xlink:href="#IPAexGothic-30" x="251.953125"/>
       <use xlink:href="#IPAexGothic-30" x="314.941406"/>
      </g>
     </g>
    </g>
   </g>
   <g id="patch_13">
    <path d="M 57.6 307.584 
L 57.6 41.472 
" style="fill: none; stroke: #000000; stroke-width: 0.8; stroke-linejoin: miter; stroke-linecap: square"/>
   </g>
   <g id="patch_14">
    <path d="M 414.72 307.584 
L 414.72 41.472 
" style="fill: none; stroke: #000000; stroke-width: 0.8; stroke-linejoin: miter; stroke-linecap: square"/>
   </g>
   <g id="patch_15">
    <path d="M 57.6 307.584 
L 414.72 307.584 
" style="fill: none; stroke: #000000; stroke-width: 0.8; stroke-linejoin: miter; stroke-linecap: square"/>
   </g>
   <g id="patch_16">
    <path d="M 57.6 41.472 
L 414.72 41.472 
" style="fill: none; stroke: #000000; stroke-width: 0.8; stroke-linejoin: miter; stroke-linecap: square"/>
   </g>
   <g id="text_14">
    <!-- 136531 -->
    <g transform="translate(142.399577 50.0439)scale(0.0579 -0.0579)">
     <defs>
      <path id="IPAexGothic-33" d="M 2381 2419 
Q 3506 2216 3506 1278 
Q 3506 716 3128 356 
Q 2709 -31 1944 -31 
Q 797 -31 288 881 
L 756 1131 
Q 1109 441 1938 441 
Q 2425 441 2694 691 
Q 2950 928 2950 1291 
Q 2950 1719 2566 1978 
Q 2216 2213 1644 2213 
L 1363 2213 
L 1363 2669 
L 1656 2669 
Q 2231 2669 2534 2888 
Q 2859 3119 2859 3509 
Q 2859 3934 2494 4138 
Q 2259 4278 1931 4278 
Q 1238 4278 903 3578 
L 434 3803 
Q 897 4725 1938 4725 
Q 2597 4725 3006 4394 
Q 3416 4069 3416 3534 
Q 3416 3028 3019 2706 
Q 2763 2500 2381 2444 
L 2381 2419 
z
" transform="scale(0.015625)"/>
      <path id="IPAexGothic-35" d="M 1178 2603 
Q 1634 2963 2172 2963 
Q 2816 2963 3241 2528 
Q 3638 2113 3638 1497 
Q 3638 938 3297 513 
Q 2869 -31 2031 -31 
Q 959 -31 469 784 
L 938 1028 
Q 1309 434 2013 434 
Q 2466 434 2769 716 
Q 3081 1013 3081 1503 
Q 3081 1966 2806 2241 
Q 2519 2528 2056 2528 
Q 1406 2528 1072 2028 
L 591 2091 
L 884 4634 
L 3406 4634 
L 3406 4153 
L 1341 4153 
L 1134 2603 
L 1178 2603 
z
" transform="scale(0.015625)"/>
     </defs>
     <use xlink:href="#IPAexGothic-31"/>
     <use xlink:href="#IPAexGothic-33" x="62.988281"/>
     <use xlink:href="#IPAexGothic-36" x="125.976562"/>
     <use xlink:href="#IPAexGothic-35" x="188.964844"/>
     <use xlink:href="#IPAexGothic-33" x="251.953125"/>
     <use xlink:href="#IPAexGothic-31" x="314.941406"/>
    </g>
   </g>
   <g id="text_15">
    <!-- 134690 -->
    <g transform="translate(308.039651 53.461315)scale(0.0579 -0.0579)">
     <defs>
      <path id="IPAexGothic-39" d="M 2984 2356 
Q 2544 1716 1813 1716 
Q 1253 1716 847 2056 
Q 366 2459 366 3163 
Q 366 3813 769 4266 
Q 1181 4725 1869 4725 
Q 2800 4725 3241 3950 
Q 3559 3378 3559 2472 
Q 3559 1250 3041 588 
Q 2553 -31 1769 -31 
Q 859 -31 391 703 
L 853 953 
Q 1156 428 1753 428 
Q 2922 428 3009 2356 
L 2984 2356 
z
M 1888 4278 
Q 1450 4278 1172 3950 
Q 922 3653 922 3200 
Q 922 2741 1159 2478 
Q 1434 2163 1906 2163 
Q 2431 2163 2728 2572 
Q 2925 2847 2925 3169 
Q 2925 3553 2694 3863 
Q 2375 4278 1888 4278 
z
" transform="scale(0.015625)"/>
     </defs>
     <use xlink:href="#IPAexGothic-31"/>
     <use xlink:href="#IPAexGothic-33" x="62.988281"/>
     <use xlink:href="#IPAexGothic-34" x="125.976562"/>
     <use xlink:href="#IPAexGothic-36" x="188.964844"/>
     <use xlink:href="#IPAexGothic-39" x="251.953125"/>
     <use xlink:href="#IPAexGothic-30" x="314.941406"/>
    </g>
   </g>
   <g id="text_16">
    <!-- 127535 -->
    <g transform="translate(374.295681 66.74301)scale(0.0579 -0.0579)">
     <defs>
      <path id="IPAexGothic-37" d="M 3597 4263 
Q 2238 2106 1778 63 
L 1131 63 
Q 1581 1834 2950 4128 
L 428 4128 
L 428 4634 
L 3597 4634 
L 3597 4263 
z
" transform="scale(0.015625)"/>
     </defs>
     <use xlink:href="#IPAexGothic-31"/>
     <use xlink:href="#IPAexGothic-32" x="62.988281"/>
     <use xlink:href="#IPAexGothic-37" x="125.976562"/>
     <use xlink:href="#IPAexGothic-35" x="188.964844"/>
     <use xlink:href="#IPAexGothic-33" x="251.953125"/>
     <use xlink:href="#IPAexGothic-35" x="314.941406"/>
    </g>
   </g>
   <g id="text_17">
    <!-- 122465 -->
    <g transform="translate(241.783621 76.154359)scale(0.0579 -0.0579)">
     <use xlink:href="#IPAexGothic-31"/>
     <use xlink:href="#IPAexGothic-32" x="62.988281"/>
     <use xlink:href="#IPAexGothic-32" x="125.976562"/>
     <use xlink:href="#IPAexGothic-34" x="188.964844"/>
     <use xlink:href="#IPAexGothic-36" x="251.953125"/>
     <use xlink:href="#IPAexGothic-35" x="314.941406"/>
    </g>
   </g>
   <g id="text_18">
    <!-- 120440 -->
    <g transform="translate(175.527592 79.913329)scale(0.0579 -0.0579)">
     <use xlink:href="#IPAexGothic-31"/>
     <use xlink:href="#IPAexGothic-32" x="62.988281"/>
     <use xlink:href="#IPAexGothic-30" x="125.976562"/>
     <use xlink:href="#IPAexGothic-34" x="188.964844"/>
     <use xlink:href="#IPAexGothic-34" x="251.953125"/>
     <use xlink:href="#IPAexGothic-30" x="314.941406"/>
    </g>
   </g>
   <g id="text_19">
    <!-- 118221 -->
    <g transform="translate(208.655607 84.032418)scale(0.0579 -0.0579)">
     <use xlink:href="#IPAexGothic-31"/>
     <use xlink:href="#IPAexGothic-31" x="62.988281"/>
     <use xlink:href="#IPAexGothic-38" x="125.976562"/>
     <use xlink:href="#IPAexGothic-32" x="188.964844"/>
     <use xlink:href="#IPAexGothic-32" x="251.953125"/>
     <use xlink:href="#IPAexGothic-31" x="314.941406"/>
    </g>
   </g>
   <g id="text_20">
    <!-- 106470 -->
    <g transform="translate(341.167666 105.845585)scale(0.0579 -0.0579)">
     <use xlink:href="#IPAexGothic-31"/>
     <use xlink:href="#IPAexGothic-30" x="62.988281"/>
     <use xlink:href="#IPAexGothic-36" x="125.976562"/>
     <use xlink:href="#IPAexGothic-34" x="188.964844"/>
     <use xlink:href="#IPAexGothic-37" x="251.953125"/>
     <use xlink:href="#IPAexGothic-30" x="314.941406"/>
    </g>
   </g>
   <g id="text_21">
    <!-- 89254 -->
    <g transform="translate(111.09496 137.803331)scale(0.0579 -0.0579)">
     <use xlink:href="#IPAexGothic-38"/>
     <use xlink:href="#IPAexGothic-39" x="62.988281"/>
     <use xlink:href="#IPAexGothic-32" x="125.976562"/>
     <use xlink:href="#IPAexGothic-35" x="188.964844"/>
     <use xlink:href="#IPAexGothic-34" x="251.953125"/>
    </g>
   </g>
   <g id="text_22">
    <!-- 76302 -->
    <g transform="translate(276.735034 161.845892)scale(0.0579 -0.0579)">
     <use xlink:href="#IPAexGothic-37"/>
     <use xlink:href="#IPAexGothic-36" x="62.988281"/>
     <use xlink:href="#IPAexGothic-33" x="125.976562"/>
     <use xlink:href="#IPAexGothic-30" x="188.964844"/>
     <use xlink:href="#IPAexGothic-32" x="251.953125"/>
    </g>
   </g>
   <g id="text_23">
    <!-- 35547 -->
    <g transform="translate(77.966945 237.498654)scale(0.0579 -0.0579)">
     <use xlink:href="#IPAexGothic-33"/>
     <use xlink:href="#IPAexGothic-35" x="62.988281"/>
     <use xlink:href="#IPAexGothic-35" x="125.976562"/>
     <use xlink:href="#IPAexGothic-34" x="188.964844"/>
     <use xlink:href="#IPAexGothic-37" x="251.953125"/>
    </g>
   </g>
  </g>
 </g>
 <defs>
  <clipPath id="p594f9ed72a">
   <rect x="57.6" y="41.472" width="357.12" height="266.112"/>
  </clipPath>
 </defs>
</svg>
